<svg width="1024" height="760" viewBox="0 0 1024 760" fill="none" xmlns="http://www.w3.org/2000/svg">
<path d="M420.271 19.3801C416.636 19.7271 411.431 19.7271 408.705 19.3636C405.979 19.0001 408.953 18.7026 415.314 18.7192C421.675 18.7192 423.906 19.0166 420.271 19.3801Z" fill="#474747" fill-opacity="0.14"/>
<path d="M0.805211 415.522C0.524322 418.248 0.177342 410.631 0.0286364 398.587C-0.120069 386.543 0.326048 376.696 1.00349 376.696C1.68092 376.696 2.0279 384.312 1.78006 393.63C1.53222 402.949 1.0861 412.796 0.805211 415.522Z" fill="#0C0D0C" fill-opacity="0.25"/>
<path d="M1023.26 469.217C1022.96 467.846 1022.45 459.486 1022.15 450.63C1021.84 441.775 1022.17 434.522 1022.88 434.522C1023.6 434.522 1024.1 442.882 1023.98 453.109C1023.88 463.336 1023.55 470.589 1023.26 469.217Z" fill="#0C0D0C" fill-opacity="0.25"/>
<path d="M556.469 3.42C571.406 2.56087 583.979 1.43739 584.426 0.925217C584.872 0.413043 587.334 0 589.911 0C592.489 0 605.558 2.14783 618.958 4.7913C632.358 7.41826 651.872 10.4252 662.331 11.4661C672.79 12.507 685.793 14.1426 691.246 15.0843C696.698 16.0426 708.215 19.4461 716.856 22.6678C725.498 25.9061 739.988 32.0191 749.076 36.2652C758.163 40.5113 769.696 46.6904 774.686 49.9948C779.676 53.2991 786.748 58.107 790.383 60.6513C794.018 63.2122 799.223 66.2687 801.949 67.4748C804.675 68.6643 810.243 71.7539 814.341 74.3478C818.439 76.9252 822.883 81.0887 824.255 83.5835C825.626 86.0948 830.55 91.167 835.226 94.8678C839.885 98.5852 848.064 106.714 853.401 112.959C858.721 119.204 866.801 126.97 871.345 130.224C875.889 133.479 886.232 142.12 894.328 149.439C902.771 157.072 915.147 170.835 923.375 181.739C931.257 192.181 943.038 206.505 949.548 213.543C956.074 220.582 963.443 229.355 965.938 233.023C968.433 236.69 971.788 239.664 973.374 239.631C974.96 239.598 977.009 241.052 977.917 242.87C978.826 244.687 979.57 249.891 979.57 254.435C979.57 258.978 981.42 268.263 983.701 275.087C985.964 281.894 989.979 291.757 992.59 296.978C995.217 302.199 998.621 311.319 1000.16 317.217C1001.69 323.116 1004.4 329.807 1006.19 332.087C1008.7 335.292 1009.43 338.828 1009.44 347.783C1009.44 354.143 1010.19 362.685 1011.08 366.783C1011.97 370.88 1013.36 380.909 1014.15 389.087C1014.96 397.265 1016.81 409.161 1018.28 415.522C1019.75 421.883 1021.44 437.496 1023.17 473.348L1017.97 481.609C1015.11 486.152 1011.61 494.694 1010.19 500.609C1008.77 506.523 1006.8 514.322 1005.84 517.956C1004.88 521.591 1002.45 527.176 1000.45 530.348C998.455 533.52 994.093 541.698 990.772 548.522C987.435 555.345 980.776 565.324 975.951 570.71C971.127 576.096 963.278 582.97 958.503 585.993C953.728 589.016 948.672 593.147 947.268 595.196C945.863 597.244 944.938 600.4 945.235 602.217C945.516 604.035 947.218 605.753 949.035 606.034C950.836 606.315 953.414 606.877 954.785 607.29C956.917 607.917 956.867 608.43 954.422 610.908C952.406 612.957 951.084 618.789 949.812 631.13C948.821 640.663 947.367 651.089 946.557 654.261C945.549 658.193 941.485 663.48 933.818 670.783C926.102 678.168 914.8 686.049 897.782 695.929C877.128 707.923 870.519 710.914 858.127 713.838C849.948 715.788 835.441 719.951 825.907 723.107C816.373 726.263 803.353 731.649 796.992 735.085C786.517 740.736 783.956 741.413 769.729 742.157C756.842 742.834 751.373 744.023 739.162 748.864C730.24 752.4 717.517 755.787 690.42 760L684.224 755.242C680.82 752.615 674.624 746.849 670.477 742.437C666.329 738.01 660.86 731.054 658.349 726.956C655.821 722.859 651.707 716.548 649.179 712.913C646.667 709.278 642.9 702.967 640.818 698.87C638.72 694.772 635.085 685.85 632.738 679.043C628.789 667.627 628.062 666.619 623.502 666.14C620.776 665.859 611.49 668.156 602.849 671.245C594.207 674.335 582.327 679.952 576.412 683.736C565.755 690.576 565.656 690.592 562.781 687.321C560.484 684.694 557.84 684 549.975 684C543.333 684 536.922 685.289 530.561 687.899C525.34 690.063 508.42 696.11 464.883 710.897L411.183 709.989C372.14 709.344 355.237 708.452 349.223 706.75C344.679 705.462 337.244 702.405 332.7 699.96C328.156 697.515 319.102 690.51 312.575 684.396C306.048 678.267 296.763 667.181 291.921 659.746C287.097 652.311 280.719 642.283 277.761 637.442C274.011 631.312 272.408 626.653 272.424 622.043C272.458 617.269 271.433 614.443 268.723 611.883C266.641 609.917 260.495 606.017 255.042 603.192C249.59 600.383 241.031 597.03 236.041 595.757C229.333 594.056 212.893 593.362 173.254 593.114C143.711 592.932 116.581 593.345 112.946 594.039C107.196 595.13 106.072 594.832 104.271 591.726C103.131 589.776 97.563 583.135 91.8792 576.972C86.1953 570.81 77.9174 560.219 73.4727 553.429C69.0281 546.638 63.6582 538.477 61.5432 535.304C59.4283 532.132 50.0433 522.401 40.7079 513.71C31.3725 505.02 20.2361 492.744 15.9567 486.45C10.0745 477.759 7.56305 472.01 5.53074 462.609C3.89497 454.992 2.52358 438.123 1.97832 418.826C1.31741 395.217 1.76352 382.313 3.76279 366.783C5.6464 352.111 7.72828 343.256 10.9337 336.217C13.4121 330.765 18.6168 320.72 22.4832 313.913C26.3661 307.09 31.3394 295.937 33.537 289.13C35.751 282.307 38.7582 271.898 40.2287 266C41.6828 260.102 44.8882 250.883 47.3501 245.513C50.2746 239.136 54.3723 233.667 59.2465 229.652C63.3277 226.298 69.9864 218.037 74.0345 211.313C78.0826 204.589 86.6249 193.982 93.0358 187.72C99.4467 181.475 107.659 174.354 111.294 171.892C114.929 169.43 124.892 163.763 133.451 159.286C143.497 154.049 153.889 146.796 162.845 138.783C170.462 131.959 180.21 123.616 184.473 120.212C188.753 116.809 201.541 109.242 212.909 103.393C224.26 97.5609 237.66 91.2496 242.65 89.3991C247.64 87.5487 258.05 82.1791 265.782 77.4704C273.498 72.7617 287.262 65.3435 296.35 61.0148C305.437 56.6696 324.405 48.5078 338.483 42.8739C352.56 37.24 369.661 29.8548 376.485 26.4513C388.696 20.3878 389.258 20.2722 413.662 19.2643C429.243 18.6365 446.41 16.72 459.926 14.1261C471.74 11.8461 492.178 8.87217 505.364 7.48435C518.549 6.11304 541.532 4.27913 556.469 3.42Z" fill="#000101"/>
<path d="M571.158 101.477C571.009 99.5768 571.521 97.5279 572.281 96.9331C573.041 96.3218 574.842 95.8096 576.28 95.793C577.717 95.7765 581.501 98.4037 590.456 107.458L585.417 107.425C582.641 107.409 579.436 108.317 578.279 109.457C576.61 111.11 575.718 110.862 573.801 108.218C572.48 106.401 571.29 103.361 571.158 101.477Z" fill="#0E0D0C" fill-opacity="0.99"/>
<path d="M815.597 484.368C817.745 484.665 819.876 484.351 820.306 483.674C820.752 482.997 821.446 482.435 821.859 482.435C822.272 482.435 822.983 483.922 823.429 485.739C824.172 488.714 823.644 488.945 818.075 488.069C812.755 487.226 811.169 487.788 806.922 491.935C802.428 496.297 801.701 496.529 799.471 494.183C797.24 491.869 797.752 491.192 804.328 487.706C808.376 485.574 813.432 484.071 815.597 484.368Z" fill="#302A29"/>
<path d="M810.012 366.37C809.516 364.106 807.335 363.363 799.884 362.966L790.383 362.454L800.71 362.14C810.458 361.843 811.02 362.041 810.838 365.544C810.706 368.171 810.475 368.418 810.012 366.37Z" fill="#514745"/>
<path d="M521.854 553.891C521.87 551.843 522.779 548.687 523.869 546.87C524.96 545.052 526.067 543.565 526.315 543.565C526.579 543.565 526.348 545.977 525.819 548.935C525.274 551.892 524.167 555.048 523.341 555.957C522.382 556.997 521.837 556.237 521.854 553.891Z" fill="#514745"/>
<path d="M486.362 32.1347C489.089 30.8791 496.144 29.5574 502.059 29.1939C507.974 28.8304 517.26 28.8304 522.713 29.1939C528.165 29.5574 533.006 30.2182 533.453 30.6478C533.899 31.0774 532.23 37.1904 529.735 44.2121C526.116 54.4391 525.208 59.9078 525.191 71.4565C525.191 79.4034 524.448 87.4 523.539 89.2174C522.201 91.9104 520.267 92.5052 513.212 92.4721C506.157 92.4391 503.232 93.3643 497.515 97.4287C492.834 100.766 490.488 103.674 490.477 106.152C490.477 108.201 491.584 111.538 492.955 113.587C494.36 115.685 496.524 116.941 497.928 116.478C499.3 116.032 500.374 116.214 500.341 116.891C500.324 117.569 499.234 119.981 497.928 122.261C496.623 124.524 495.533 129.729 495.5 133.826C495.467 137.923 493.236 153.52 490.543 168.522C487.833 183.507 483.487 202.094 480.86 209.826C478.25 217.542 475.523 229.074 474.829 235.435C474.136 241.796 471.327 252.948 468.6 260.217C465.874 267.487 462.619 277.152 461.363 281.696C460.108 286.239 459.067 293.294 459.067 297.391C459.05 301.489 460.174 308.163 461.578 312.261C462.983 316.358 464.123 323.033 464.123 327.13C464.139 331.244 465.957 338.976 468.22 344.478C470.467 349.93 472.301 355.316 472.318 356.456C472.318 357.596 475.21 365.775 478.729 374.63C482.248 383.486 485.652 393.713 486.263 397.348C486.891 401.082 486.61 405.757 485.602 408.087C484.628 410.35 481.967 415.555 479.671 419.652C477.391 423.75 475.92 428.012 476.399 429.152C476.961 430.474 475.325 431.581 471.905 432.209C468.947 432.754 464.304 434.505 461.578 436.108C458.356 438.008 450.673 439.544 439.669 440.503C430.35 441.296 422.683 441.576 422.65 441.13C422.601 440.684 421.923 432.87 421.13 423.783C420.354 414.696 418.9 400.388 417.925 391.978C416.95 383.569 415.397 374.829 414.488 372.565C413.579 370.285 412.869 363.049 412.885 356.456C412.951 344.809 412.654 343.966 402.559 325.693C396.181 314.128 389.489 304.446 385.16 300.497C380.93 296.631 376.502 294.087 374.007 294.087C370.983 294.087 369.876 294.963 369.876 297.391C369.876 299.209 372.966 306.462 376.733 313.5C380.501 320.538 385.358 329.642 387.523 333.739C390.1 338.596 391.125 342.611 390.48 345.304C389.952 347.568 390.414 355.746 391.505 363.478C392.595 371.194 394.462 379.009 395.652 380.826C396.842 382.643 398.263 387.468 398.791 391.565C399.337 395.663 400.444 399.743 401.253 400.652C402.063 401.561 403.335 409.557 404.062 418.43C405.103 430.936 404.938 434.538 403.335 434.538C401.98 434.522 401.27 437.099 401.27 441.956C401.27 446.153 400.361 449.92 399.204 450.614C398.064 451.291 390.447 453.869 382.268 456.347C374.09 458.825 365.547 460.907 363.267 460.973C361.004 461.039 358.013 459.899 356.658 458.412C355.303 456.925 352.329 454.744 350.049 453.538C347.785 452.349 342.201 449.391 337.657 446.979C333.113 444.583 328.107 441.345 326.537 439.809C324.951 438.256 323.249 434.77 322.72 432.043C322.208 429.317 319.498 424.856 316.689 422.13C313.897 419.404 309.766 412.35 307.519 406.435C305.272 400.52 302 390.491 300.266 384.13C297.49 373.936 295.887 371.326 276.522 351.814L276.588 335.755C276.654 320.158 276.968 318.886 287.13 291.609C296.862 265.521 297.622 262.497 297.804 249.197C297.919 241.333 298.58 234.262 299.291 233.502C300.001 232.758 300.546 230.462 300.53 228.413C300.497 226.05 298.828 223.853 295.937 222.383C293.442 221.11 288.6 219.623 285.197 219.078C280.521 218.335 278.819 217.178 278.224 214.37C277.794 212.321 277.431 209.099 277.414 207.183C277.381 205.283 278.29 202.424 279.43 200.822C281.264 198.211 281.016 198.013 276.935 198.922C273.333 199.715 272.391 199.318 272.408 197.022C272.408 195.436 270.177 188.364 267.451 181.326C263.552 171.281 261.767 168.522 259.173 168.522C257.356 168.522 254.2 169.232 252.151 170.091C249.127 171.363 247.607 170.818 243.939 167.2C241.477 164.738 239.065 160.327 238.569 157.37C237.76 152.396 238.288 151.636 245.542 147.093C249.854 144.4 256.728 141.707 260.825 141.096C264.923 140.501 270.31 138.981 272.805 137.742C275.299 136.503 277.91 134.454 278.588 133.182C279.265 131.926 284.85 128.209 290.98 124.921C297.704 121.336 304.429 118.956 307.916 118.956C311.104 118.956 313.963 118.395 314.293 117.717C314.607 117.04 320.01 113.603 326.272 110.101C332.535 106.582 340.4 101.377 343.77 98.5356C347.124 95.6773 351.966 91.7121 354.51 89.7295C357.055 87.7469 363.598 84.5252 369.05 82.5756C374.503 80.6426 383.805 78.3791 389.704 77.553C395.602 76.7434 403.781 75.3887 407.879 74.5626C411.977 73.7365 417.908 73.4556 421.097 73.9347C424.286 74.4139 431.622 73.7695 437.422 72.5139C443.816 71.126 449.021 68.9121 450.673 66.913C452.16 65.0956 454.787 58.4043 456.506 52.0434C458.224 45.6826 460.058 39.933 460.603 39.2887C461.132 38.6278 466.039 37.2565 471.492 36.2487C476.944 35.2408 483.636 33.3904 486.362 32.1347Z" fill="#DFC7EF"/>
<path d="M924.83 233.65C924.648 229.024 925.11 224.745 925.87 224.15C926.631 223.539 928.052 223.043 929.043 223.06C930.018 223.06 933.537 227.339 936.858 232.56C940.179 237.781 946.425 249.098 950.737 257.739C955.033 266.38 960.337 276.029 962.502 279.217C965.311 283.315 966.698 288.123 967.277 295.739C967.872 303.273 967.475 307.056 965.988 308.444C964.831 309.518 960.701 311.005 956.818 311.749C951.564 312.74 949.779 312.558 949.796 311.022C949.812 309.882 951.134 308.263 952.72 307.436C954.306 306.594 955.05 305.47 954.372 304.958C953.695 304.43 951.084 305.52 948.589 307.354C946.094 309.204 942.74 310.691 941.154 310.658C939.568 310.642 938.263 311.716 938.263 313.087C938.263 314.442 939.006 315.945 939.915 316.391C940.857 316.854 939.766 319.91 937.403 323.413C935.123 326.816 932.81 331.839 932.265 334.565C931.736 337.291 928.332 345.09 924.73 351.913C918.98 362.768 915.626 366.502 897.649 382.065C885.092 392.936 876.17 399.512 874.65 399C872.816 398.389 872.436 396.77 873.196 392.804C873.757 389.847 877.112 381.487 880.631 374.217C884.629 366.006 886.695 359.744 886.1 357.696C885.555 355.878 886.414 350.674 887.967 346.13C889.537 341.587 891.817 335.077 893.056 331.674C894.295 328.27 895.32 323.066 895.336 320.109C895.353 315.813 893.948 313.55 881.259 302.794L886.034 294.731C888.661 290.287 893.304 283.116 896.361 278.804C899.417 274.492 901.912 270.213 901.912 269.304C901.912 268.396 903.779 266.529 906.043 265.174C908.323 263.803 913.544 258.053 917.675 252.37C924.466 243.018 925.143 241.25 924.83 233.65Z" fill="#DFC7EF"/>
<path d="M960.982 331.922C966.203 331.839 972.349 331.162 974.613 330.435C976.877 329.708 979.851 329.014 981.222 328.882C982.593 328.75 985.468 329.972 987.616 331.608C991.169 334.284 991.664 336.333 992.937 353.565C993.697 364.007 994.837 376.663 995.465 381.652C996.324 388.376 995.944 392.243 994.027 396.522C992.59 399.694 989.483 406.765 987.104 412.217C984.725 417.669 982.825 423.981 982.874 426.261C982.924 428.623 981.123 432.159 978.661 434.522C976.298 436.785 968.202 446.83 960.651 456.826C953.1 466.822 945.318 476.487 943.368 478.304C941.402 480.122 939.832 483.277 939.865 485.326C939.898 487.375 941.22 489.506 942.806 490.068C944.393 490.629 948.854 489.886 952.72 488.416C957.429 486.615 961.362 483.426 964.683 478.717C967.409 474.851 972.432 467.681 975.836 462.757C979.256 457.85 985.336 450.036 989.335 445.41C993.35 440.783 997.249 436.818 998.009 436.587C998.769 436.356 999.397 440.998 999.397 446.913C999.397 452.828 997.927 463.418 996.142 470.456C994.341 477.495 991.731 487.358 990.343 492.348C988.955 497.337 987.848 502.922 987.864 504.739C987.914 506.92 985.105 509.861 979.619 513.413C974.117 516.965 970.928 520.319 970.185 523.326C969.557 525.821 966.071 533.074 962.419 539.435C958.767 545.796 950.919 555.94 944.954 561.987C938.742 568.282 932.017 573.503 929.175 574.229C926.449 574.923 922.351 576.79 920.087 578.376C917.824 579.963 911.496 581.664 906.043 582.16C898.294 582.854 893.965 582.259 876.302 575.783L875.806 558.435C875.492 548.026 876.318 535.139 877.839 526.217C879.739 514.966 881.193 510.736 883.77 508.87C885.654 507.498 887.157 505.086 887.124 503.5C887.075 501.914 886.298 499.122 885.389 497.304C883.969 494.479 884.745 493.306 890.759 489.192C894.626 486.532 901.648 480.403 906.374 475.562C914.354 467.367 915.263 465.566 919.245 450.217C921.591 441.13 925.16 431.283 927.176 428.343C929.192 425.385 931.571 422.99 932.48 423.006C933.388 423.023 937.47 424.609 941.567 426.542C945.665 428.475 951.977 430.16 955.612 430.276C959.247 430.391 963.526 429.912 965.112 429.202C966.698 428.491 968.004 426.806 968.004 425.435C968.004 424.063 966.153 420.726 963.873 418C961.119 414.696 957.677 412.735 953.546 412.118C950.143 411.59 945.434 409.557 943.087 407.575C940.741 405.576 937.767 401.511 936.478 398.521C935.189 395.53 933.388 393.333 932.48 393.63C931.571 393.944 928.217 399.363 925.028 405.691C921.822 412.003 917.262 419.784 914.883 422.956C912.503 426.129 909.48 430.97 908.141 433.696C906.803 436.422 904.292 444.038 902.573 450.63C899.963 460.609 898.74 462.856 895.303 463.963C893.04 464.707 888.264 467.499 884.696 470.159C878.533 474.769 877.409 475 861.597 475C848.147 475 844.875 474.521 844.446 472.522C844.165 471.15 845.685 467.433 847.833 464.261C849.981 461.089 855.037 452.035 859.069 444.154C865.645 431.283 868.272 428.144 884.976 413.176C895.204 404.023 904.308 396.522 905.217 396.522C906.126 396.522 910.967 392.804 915.957 388.261C924.35 380.628 925.523 380.083 931.24 381.024C934.644 381.586 940.047 383.552 943.219 385.403C948.705 388.575 949.283 388.608 954.372 386.03C957.33 384.527 959.742 382.561 959.742 381.652C959.742 380.743 959.098 378.695 958.321 377.109C957.528 375.523 953.811 372.912 950.06 371.326C946.293 369.74 941.732 368.435 939.915 368.435C938.097 368.435 936.594 367.51 936.577 366.37C936.544 365.23 939.898 357.051 951.481 332.087L960.982 331.922Z" fill="#DFC7EF"/>
<path d="M855.235 619.516C858.639 619.499 866.636 618.062 872.997 616.31C880.449 614.278 890.148 613.122 900.26 613.089C908.901 613.039 916.783 613.551 917.774 614.229C918.782 614.89 920.104 621.003 920.732 627.826C921.822 639.689 921.69 640.383 917.675 643.935C915.362 645.983 913.511 648.577 913.544 649.717C913.577 650.857 909.298 655.203 904.044 659.399C898.773 663.579 892.246 668.139 889.52 669.527C886.794 670.915 881.226 672.583 877.128 673.244C873.03 673.905 868.206 675.756 866.388 677.375C864.571 678.994 857.879 682.579 851.518 685.338C845.156 688.114 831.409 693.401 820.95 697.118C810.491 700.836 799.718 703.859 796.992 703.843C794.266 703.826 789.425 704.603 786.252 705.544C783.08 706.486 771.167 708.221 759.816 709.394C743.987 711.029 738.006 712.335 734.205 714.978C731.479 716.878 725.531 719.257 720.987 720.282C716.443 721.306 709.388 721.653 705.29 721.058C701.193 720.48 693.394 717.539 687.941 714.532C681.497 710.98 675.136 705.561 669.766 699.051C665.222 693.533 658.349 683.24 654.499 676.185C650.649 669.13 647.493 662.043 647.477 660.456C647.46 657.879 648.65 657.681 658.613 658.722C664.743 659.366 671.997 659.829 674.723 659.763C677.449 659.696 685.628 658.87 692.898 657.912C700.168 656.97 710.214 654.707 715.204 652.89C720.194 651.072 731.727 648.313 740.814 646.743C749.902 645.19 759.568 642.96 762.294 641.803C765.02 640.647 772.819 638.532 779.643 637.111C786.451 635.69 799.471 632.997 808.558 631.097C817.646 629.214 830.467 625.843 837.06 623.613C843.653 621.383 851.832 619.549 855.235 619.516Z" fill="#DFC7EF"/>
<path d="M808.145 122.459C801.602 115.768 798.099 110.63 796.877 105.937C795.918 102.187 795.72 99.1304 796.463 99.1304C797.207 99.1304 799.867 100.171 802.362 101.46C804.857 102.749 809.137 106.136 811.863 109.01C814.589 111.869 819.976 115.652 823.842 117.403C827.708 119.171 830.864 121.732 830.864 123.087C830.864 124.442 835.507 130.307 841.191 136.106C846.875 141.905 853.005 147.44 854.822 148.398C856.937 149.505 858.127 151.818 858.127 154.776C858.127 158.923 859.432 160.063 870.122 165.217C879.772 169.86 883.456 172.784 888.892 180.087C892.626 185.076 899.566 193.271 904.341 198.261C911.71 205.993 912.817 207.959 911.76 211.478C911.066 213.742 910.422 218.401 910.339 221.804C910.207 226.546 908.72 229.57 903.978 234.691C900.574 238.376 895.551 242.076 892.825 242.903C890.099 243.745 886.298 246.108 884.398 248.19C882.481 250.255 878.483 256.417 875.476 261.87C872.485 267.322 868.487 274.756 866.603 278.391C864.405 282.637 863.216 287.941 863.298 293.261C863.365 299.076 864.62 303.488 867.528 308.13C869.808 311.765 872.634 318.456 873.807 323C875.839 330.897 875.674 332.037 870.056 348.609C866.834 358.142 861.795 373.771 858.87 383.304C855.929 392.837 853.236 403.263 852.873 406.435C852.509 409.607 852.063 416.017 851.865 420.66C851.567 427.979 850.146 431.151 841.158 444.616C835.457 453.142 830.798 461.617 830.815 463.435C830.831 465.252 828.386 470.836 825.378 475.826C820.521 483.889 819.348 484.863 815.052 484.434C812.392 484.17 808.542 485.095 806.493 486.499C804.444 487.903 798.496 490.712 793.275 492.761C784.98 495.999 781.246 496.429 763.947 496.032C751.29 495.751 739.344 496.495 730.901 498.097C722.986 499.601 712.379 503.236 704.464 507.151C697.194 510.736 685.116 515.577 677.615 517.89C670.113 520.203 662.678 522.07 661.092 522.054C659.506 522.021 654.483 523.64 649.939 525.639C643.33 528.547 638.389 529.307 625.154 529.406C616.067 529.472 605.294 528.58 601.196 527.423C596.966 526.234 590.027 522.136 585.087 517.923C580.311 513.859 575.669 510.522 574.76 510.522C573.851 510.522 572.364 508.655 571.455 506.391C570.117 503.037 568.646 502.244 563.607 502.195C558.716 502.145 555.924 503.45 550.405 508.39C546.555 511.843 539.12 521.723 524.365 546.093L514.451 542.706C508.999 540.856 502.125 537.683 499.168 535.668C494.558 532.512 491.6 532 478.101 532C462.9 532 462.305 531.851 459.05 527.456C456.456 523.97 455.68 520.418 455.713 512.174C455.729 506.11 457.58 494.248 459.992 484.913C462.322 475.826 465.312 466.723 466.634 464.674C467.939 462.625 469.013 459.85 469.013 458.478C469.013 456.942 472.285 454.976 477.688 453.29C482.463 451.803 489.155 449.21 492.559 447.508C495.962 445.823 500.06 442.469 501.646 440.073C504.306 436.075 505.182 435.81 512.799 436.703C519.028 437.446 522.68 436.917 527.67 434.555C531.305 432.836 536.146 429.549 538.409 427.269C540.69 424.989 543.284 422.13 544.192 420.941C545.101 419.735 552.173 416.414 559.889 413.572C567.622 410.714 576.164 407.443 578.89 406.303C581.617 405.163 585.714 404.056 587.978 403.857C590.258 403.643 595.463 402.635 599.544 401.61C603.642 400.586 608.103 400.107 609.458 400.57C610.829 401.016 617.521 401.809 624.328 402.304C631.152 402.816 642.305 402.354 649.113 401.28C655.937 400.206 667.453 399.248 674.723 399.165C687.413 399 687.925 398.851 687.528 395.283C687.297 393.234 689.66 385.799 692.766 378.761C695.889 371.723 698.946 363.726 699.59 361C700.234 358.274 702.845 351.946 705.406 346.956C707.967 341.967 712.346 332.665 715.121 326.304C718.723 318.076 723.052 311.864 730.108 304.826C738.914 296.02 740.021 294.17 740.038 288.304C740.038 283.645 738.286 278.755 734.106 271.783C729.463 264.017 728.389 260.796 729.199 256.913C729.761 254.187 731.859 249.478 733.875 246.471C736.37 242.704 738.286 241.333 739.988 242.126C741.36 242.754 751.389 243.58 762.294 243.943C778.635 244.505 783.13 245.232 787.905 248.057C791.094 249.957 798.892 253.377 805.254 255.674C811.615 257.97 817.563 260.928 818.472 262.216C819.595 263.836 819.381 267.57 817.811 273.963C816.258 280.291 812.59 287.396 806.575 295.739C801.668 302.546 796.563 311.848 795.241 316.391C793.919 320.935 792.828 327.064 792.845 330.022C792.862 333.937 791.027 337.523 786.12 343.239C781.956 348.063 779.577 352.359 779.924 354.391C780.222 356.209 783.08 359.001 786.252 360.587C789.557 362.239 795.77 363.478 800.71 363.478C808.36 363.478 809.483 363.908 810.194 367.196C810.624 369.244 811.02 372.036 811.053 373.391C811.086 374.746 806.989 380.71 801.949 386.609C796.91 392.507 789.458 403.857 777.991 426.261L781.296 431.217C783.113 433.943 785.162 436.207 785.839 436.256C786.517 436.29 789.772 433.134 793.076 429.235C796.364 425.319 800.776 419.156 802.858 415.522C804.956 411.887 810.524 404.089 815.25 398.174C819.975 392.276 824.932 385.204 826.271 382.478C827.973 379.042 828.518 373.97 828.055 365.956C827.708 359.596 827.064 352.723 826.651 350.674C826.238 348.625 824.057 346.213 821.777 345.304C818.72 344.082 816.357 344.296 812.689 346.13C809.963 347.485 806.989 348.229 806.08 347.783C805.088 347.287 805.435 345.8 806.939 344.065C808.327 342.479 809.963 336.333 810.591 330.435C811.516 321.744 813.35 316.854 820.207 304.826C825.792 295.045 830.748 288.552 834.714 285.826C838.018 283.546 842 279.829 843.554 277.565C846.28 273.55 846.23 273.352 837.308 266.826L844.413 265.157C851.237 263.555 851.501 263.274 851.088 257.723C850.791 253.774 849.221 250.783 846.131 248.256C843.636 246.223 838.465 242.87 834.615 240.821C828.369 237.483 827.51 236.294 826.568 229.652C825.775 224.035 826.37 220.185 828.98 213.956C830.897 209.413 833.954 201.416 839.126 186.696L833.756 183.391C830.798 181.59 827.08 180.103 825.494 180.087C823.495 180.087 821.843 182.499 820.108 187.935C818.736 192.247 814.837 202.689 811.433 211.115C806.03 224.514 804.841 226.315 801.949 225.406C800.132 224.844 795.687 223.886 792.052 223.291C787.244 222.515 785.311 221.325 784.881 218.913C784.551 217.096 783.79 215.047 783.196 214.353C782.601 213.659 779.329 212.734 775.926 212.288C772.522 211.842 767.879 212.222 765.599 213.13C762.526 214.353 759.089 214.039 752.265 211.891C744.797 209.545 742.285 207.761 738.832 202.391C734.899 196.245 734.685 194.874 735.659 182.565C736.254 175.296 736.899 166.622 737.113 163.284C737.328 159.947 738.997 155.205 740.815 152.743C742.632 150.282 745.986 146.878 748.25 145.16C751.439 142.764 756.693 141.773 771.184 140.831C789.673 139.625 790.053 139.526 799.471 128.87L804.014 131.926C806.509 133.595 809.814 138.072 811.367 141.872C812.904 145.656 814.209 150.612 814.259 152.859C814.308 155.106 815.085 156.956 815.993 156.956C816.952 156.956 817.646 151.719 817.646 132.174L808.145 122.459Z" fill="#EBEEDA"/>
<path d="M426.054 466.607C431.953 466.095 437.108 465.368 437.488 464.971C437.868 464.575 441.767 464.261 446.162 464.261C450.541 464.261 454.143 464.823 454.143 465.5C454.159 466.177 451.929 472.125 449.186 478.717C444.89 489.126 444.18 493.025 443.816 508.457C443.453 524.367 443.8 526.862 447.121 532.413C449.169 535.817 453.069 539.732 455.795 541.087C458.918 542.657 465.478 543.565 473.557 543.565C485.602 543.565 487.007 543.962 497.102 550.174C503.017 553.809 508.586 556.799 509.494 556.799C510.403 556.816 513.939 559.608 517.376 562.995C522.382 567.968 523.588 570.38 523.572 575.37C523.539 580.937 523.159 581.483 519.821 580.706C517.772 580.227 512.006 578.724 507.016 577.385C501.828 575.997 495.45 575.386 492.145 575.981C488.957 576.543 481.951 579.335 476.564 582.177C471.178 585.018 462.619 591.495 457.563 596.567C451.251 602.895 445.501 606.86 439.272 609.19C432.663 611.668 427.921 612.345 421.923 611.701C417.379 611.222 404.293 610.743 392.843 610.66C379.245 610.544 371.231 611.139 369.711 612.395C368.439 613.452 364.605 614.757 361.202 615.286C357.335 615.897 354.394 617.5 353.353 619.565C352.015 622.242 352.412 623.283 355.419 625.05C357.468 626.257 360.243 627.644 361.615 628.14C362.97 628.636 365.2 633.031 366.572 637.937C367.927 642.828 369.116 647.95 369.182 649.304C369.248 650.676 369.81 657.912 370.422 665.413C371.033 672.914 372.09 679.01 372.768 678.977C373.445 678.944 376.717 673.195 380.005 666.173C384.301 657.053 385.606 652.609 384.549 650.544C383.755 648.957 383.095 644.678 383.095 641.044C383.095 637.409 384.202 632.204 385.573 629.478C387.737 625.15 388.745 624.621 393.421 625.331C396.379 625.777 406.227 626.637 415.314 627.231C429.408 628.173 433.539 627.81 443.403 624.852C449.764 622.936 458.604 618.921 463.065 615.93C467.51 612.924 472.417 608.628 473.97 606.348C475.507 604.084 481.34 599.805 497.102 591.478L508.255 595.642C514.385 597.938 521.457 599.805 523.952 599.772C526.447 599.756 529.983 598.996 531.8 598.087C533.618 597.178 535.865 594.023 536.79 591.065C537.715 588.108 538.476 581.235 538.492 575.783C538.509 570.33 539.467 561.045 540.607 555.13C542.424 545.812 543.746 543.301 550.702 536.13C555.114 531.587 559.724 526.201 560.963 524.152C562.186 522.104 564.119 520.435 565.259 520.435C566.399 520.451 572.248 524.714 578.279 529.935C584.855 535.635 592.786 540.724 598.107 542.657C602.981 544.441 612.548 546.291 631.764 547.696L631.846 552.652C631.896 555.378 633.218 560.583 634.771 564.217C636.34 567.852 637.613 572.875 637.58 575.37C637.563 577.864 636.803 580.293 635.894 580.739C634.986 581.202 634.242 586.951 634.225 593.544C634.225 600.615 633.102 608.578 631.466 612.957C629.963 617.054 627.815 621.515 626.691 622.87C625.568 624.241 623.651 628.586 622.428 632.551C621.205 636.517 619.272 640.416 618.132 641.225C616.86 642.134 615.009 641.903 613.324 640.63C611.127 638.978 610.466 638.978 610.02 640.63C609.706 641.77 604.071 645.323 597.479 648.544C590.886 651.766 582.525 655.203 578.89 656.194C575.255 657.185 560.021 658.59 545.019 659.3C530.016 660.01 516.087 661.018 514.038 661.547C511.989 662.092 510.321 663.265 510.321 664.174C510.321 665.083 511.626 666.52 513.212 667.346C514.798 668.189 515.724 669.197 515.277 669.56C514.831 669.94 509.99 672.914 504.538 676.169C499.085 679.424 492.013 682.563 488.841 683.157C485.652 683.752 478.217 685.85 472.318 687.833C462.867 691.005 458.108 691.418 432.663 691.352C416.752 691.303 400.03 690.675 395.487 689.931C388.63 688.808 387.01 689.039 385.986 691.253C384.978 693.417 381.954 693.897 369.463 693.864C356.526 693.814 353.32 693.252 348.545 690.146C345.455 688.13 341.556 684.43 339.871 681.935C338.202 679.44 334.6 676.284 331.874 674.913C329.147 673.558 326.917 671.691 326.917 670.783C326.917 669.874 324.868 666.404 322.373 663.067C319.878 659.73 315.913 655.83 313.566 654.393C311.22 652.956 305.09 647.14 290.567 631.13L290.153 615.617C289.84 603.638 289.096 599.409 286.898 597.03C285.329 595.344 284.04 592.47 284.024 590.652C284.024 588.835 283.065 586.456 281.925 585.349C280.339 583.845 280.289 582.788 281.694 581.053C282.735 579.781 290.765 575.105 299.572 570.661C308.362 566.2 318.226 560.335 321.464 557.609C326.686 553.214 327.247 551.991 326.438 546.87C325.579 541.467 326.256 540.36 336.55 530.199C342.614 524.218 351.288 516.668 355.832 513.413C360.376 510.175 370.405 500.625 378.138 492.216C385.854 483.823 394.776 475.314 397.965 473.315C401.138 471.332 406.342 469.217 409.531 468.623C412.704 468.028 420.139 467.119 426.054 466.607Z" fill="#FDEEBC"/>
<path fill-rule="evenodd" clip-rule="evenodd" d="M235.628 153.768C236.768 153.702 238.123 155.701 238.635 158.196C239.164 160.69 241.213 164.474 243.179 166.589C245.162 168.703 246.451 170.57 246.054 170.719C245.657 170.868 248.07 175.279 251.424 180.5C254.778 185.721 259.371 191.867 261.652 194.13C263.915 196.41 265.402 199.384 264.956 200.739C264.51 202.094 259.107 205.96 252.977 209.33C246.847 212.684 234.389 217.558 225.301 220.169C216.214 222.763 206.548 226.199 203.822 227.802C201.095 229.404 196.816 231.222 194.321 231.833C191.826 232.461 187.861 234.262 185.514 235.848C182.458 237.913 181.4 239.912 181.797 242.87C182.193 245.843 183.498 247.149 186.473 247.512C188.736 247.793 202.136 244.323 216.214 239.78C232.34 234.592 245.492 231.354 251.738 231.057C257.19 230.776 265.931 230.726 271.152 230.941C279.43 231.255 280.653 231.734 280.653 234.609C280.653 236.426 281.396 237.913 282.305 237.913C283.214 237.913 283.627 239.582 283.214 241.63C282.801 243.679 283.181 246.273 284.04 247.413C285.048 248.735 284.916 252.617 283.71 258.152C282.652 262.927 279.001 274.641 275.597 284.174C272.193 293.707 267.798 305.619 265.832 310.609C263.238 317.184 262.18 323.793 261.949 334.565C261.784 342.743 262.213 352.97 262.891 357.283C263.899 363.71 263.684 365.13 261.652 365.13C260.297 365.13 259.19 366.436 259.223 368.022C259.256 369.608 255.538 374.069 250.961 377.935C246.087 382.049 242.65 386.328 242.65 388.261C242.65 390.078 244.319 392.391 246.368 393.399C249.045 394.721 254.464 394.754 265.782 393.515C279.794 391.978 281.71 392.094 283.577 394.572C284.718 396.092 285.626 398.471 285.593 399.826C285.56 401.197 284.238 403.626 282.669 405.262C279.959 408.07 280.207 408.55 287.626 415.175C291.905 418.991 295.441 423.436 295.474 425.022C295.507 426.608 299.307 432.936 303.934 439.065C308.56 445.195 313.996 451.324 316.028 452.696C318.061 454.067 324.868 460.692 331.163 467.433C340.383 477.297 342.795 480.997 343.572 486.433C344.365 492.067 343.803 494.132 340.119 498.957C337.69 502.129 332.237 507.895 328.007 511.761C320.407 518.684 320.126 518.783 307.503 519.014C300.464 519.146 290.6 519.477 285.61 519.741C277.134 520.187 276.225 519.857 272.243 514.95C269.897 512.058 264.064 507.085 259.289 503.913C253.572 500.113 250.879 497.288 251.424 495.652C251.887 494.281 254.976 485.739 258.331 476.652C261.668 467.565 264.527 458.743 264.675 457.041C264.824 455.339 263.7 453.109 262.18 452.084C260.098 450.68 258.347 450.73 255.158 452.283C252.828 453.423 249.144 457.884 246.963 462.196C244.798 466.508 239.726 474.504 235.678 479.957C231.646 485.409 227.301 492.381 225.995 495.454C224.706 498.527 222.162 501.798 220.344 502.707C218.527 503.616 211.356 504.822 191.809 506.391L184.606 499.287C179.93 494.694 175.353 491.852 171.602 491.208C168.413 490.663 156.897 490.63 145.992 491.142C132.939 491.753 122.777 493.174 116.25 495.322C108.336 497.916 104.833 498.263 98.9014 497.057C94.8038 496.214 90.5409 495.933 89.4008 496.412C88.0459 497.007 87.4841 500.278 87.7485 505.978C88.1285 513.859 88.5416 514.702 92.2923 515.164C94.5725 515.429 104.982 513.76 115.424 511.414C125.867 509.084 141.117 506.755 164.167 505.268L175.733 512.901C182.094 517.097 189.893 520.98 193.082 521.525C196.271 522.054 202.582 522.021 207.126 521.443C211.67 520.848 219.105 519.51 223.649 518.452C228.193 517.395 233.563 514.983 239.28 509.696L245.509 514.107C248.929 516.536 255.456 521.938 268.261 533.702L286.023 533.669C299.175 533.652 303.768 534.181 303.735 535.717C303.702 536.857 301.653 541.83 299.192 546.787C296.713 551.727 293.21 556.551 291.393 557.51C289.575 558.451 284.371 561.59 279.827 564.465C275.233 567.39 267.798 570.33 263.073 571.09C256.397 572.181 253.985 571.95 251.804 570C249.474 567.918 248.053 567.852 242.948 569.554C239.61 570.677 225.334 572.247 211.257 573.04C197.179 573.85 178.955 574.329 170.776 574.097C162.597 573.883 153.675 572.842 150.948 571.801C147.655 570.545 145.452 570.463 144.339 571.553C143.431 572.462 140.456 572.743 137.73 572.197C135.004 571.636 131.765 570.364 130.543 569.356C129.171 568.232 125.966 567.968 122.281 568.678C117.589 569.587 114.863 569.042 110.021 566.2C106.585 564.201 103.792 561.64 103.825 560.5C103.842 559.36 102.801 557.873 101.529 557.196C100.24 556.518 94.4568 549.629 88.6903 541.913C82.9238 534.197 76.1495 524.152 73.638 519.609C71.1265 515.065 69.0777 508.936 69.1107 505.978C69.1438 503.021 68.4168 500.229 67.508 499.783C66.5993 499.337 65.8557 493.752 65.8557 487.391C65.8557 481.03 64.4348 470.44 62.6999 463.848C60.965 457.256 58.7344 448.152 57.7595 443.609C56.7847 439.065 55.4133 432.11 54.7193 428.144C53.7445 422.51 52.0261 419.768 46.8544 415.571C42.3767 411.937 39.3365 407.591 37.4364 402.123C35.8998 397.678 34.1484 388.476 33.5535 381.652C32.6778 371.756 33.1239 367.097 35.7346 358.522C37.5355 352.623 41.6993 342.215 44.9874 335.391C48.2754 328.584 52.654 320.637 54.7028 317.763C56.7516 314.871 60.651 308.643 63.3773 303.901C66.1036 299.159 70.5978 292.6 73.3736 289.312C76.1329 286.041 79.5532 281.497 80.9741 279.217C82.3786 276.954 86.8067 272.89 90.8052 270.213C94.8038 267.537 98.8188 264.53 99.7276 263.538C100.636 262.547 105.279 260.102 118.729 254.435L126.577 259.309C131.435 262.316 141.216 265.785 152.188 268.396C163.208 271.006 174.807 272.609 182.755 272.625C191.446 272.625 196.75 271.832 199.278 270.147C201.327 268.776 203.028 265.983 203.062 263.935C203.111 261.886 202.186 259.325 200.996 258.235C199.823 257.144 192.916 255.426 185.646 254.435C178.376 253.443 169.834 251.775 166.645 250.75C163.456 249.726 158.632 249.082 155.905 249.33C153.179 249.561 147.231 248.57 142.687 247.099C138.143 245.629 133.5 244.076 132.36 243.646C130.758 243.051 130.857 242.027 132.74 239.152C134.079 237.103 135.946 233.023 136.871 230.065C137.984 226.497 137.995 224.707 136.904 224.696C135.995 224.696 133.385 225.439 131.121 226.348C128.031 227.587 127.007 227.471 127.023 225.935C127.056 224.795 131.699 219.359 137.35 213.824C143.017 208.306 153.212 199.5 160.036 194.263C166.843 189.009 179.996 180.897 189.248 176.204C198.485 171.529 212.248 164.59 219.816 160.79C227.367 156.99 234.488 153.834 235.628 153.768V153.768ZM145.579 173.957L146.306 177.443C146.686 179.343 146.041 181.425 144.852 182.053C143.662 182.681 138.308 186.762 132.972 191.14C127.618 195.518 120.183 201.83 109.641 211.247L108.815 226.067C108.369 234.229 107.609 241.3 107.163 241.812C106.717 242.308 102.239 243.547 97.2492 244.555C89.8965 246.025 86.5093 247.925 79.4871 254.534C73.8693 259.821 69.3586 262.696 66.6819 262.696C63.2947 262.696 62.8155 262.167 64.0052 259.804C64.7983 258.218 69.2099 252.816 73.8032 247.826C79.041 242.143 83.783 234.724 86.4763 228C88.839 222.102 92.4906 215.03 94.5559 212.304C96.6378 209.578 104.965 201.664 113.078 194.725C121.191 187.786 131.815 180.269 136.706 178.038L145.579 173.957ZM817.398 488.003C819.794 488.531 832.549 489.49 845.718 490.15C865.628 491.125 870.172 491.836 872.568 494.314C874.765 496.577 875.063 498.081 873.807 500.609C872.783 502.657 871.064 503.599 869.263 503.103C866.851 502.426 865.909 504.392 863.48 515.082C861.464 523.97 860.556 535.404 860.473 552.652C860.407 566.283 859.845 580.772 859.234 584.87C858.375 590.603 857.367 592.387 854.806 592.717C852.988 592.932 849.651 594.997 847.37 597.294C845.107 599.59 841.753 601.474 839.935 601.457C838.118 601.457 833.475 602.928 829.608 604.729C824.536 607.091 820.174 607.818 813.912 607.339C809.153 606.976 803.006 605.819 800.28 604.778C797.29 603.638 792.382 603.341 787.888 604.051C783.807 604.679 777.049 606.761 772.869 608.661C768.705 610.561 762.939 614.543 760.064 617.5C754.908 622.804 754.677 622.87 739.559 622.787C729.05 622.737 723.697 623.382 722.391 624.852C721.367 626.025 717.649 627.843 714.13 628.867C710.627 629.908 701.06 632.056 692.882 633.658C684.257 635.344 675.582 636.12 672.228 635.492C668.957 634.881 662.281 631.015 656.829 626.57C647.642 619.103 647.262 618.458 648.303 612.957C648.914 609.768 651.161 603.077 653.309 598.087C656.614 590.404 656.928 588.224 655.358 584.044C653.937 580.293 654.02 575.27 655.672 563.391C656.862 554.75 657.391 546.952 656.845 546.044C656.3 545.135 660.844 541.979 666.941 539.022C673.368 535.916 680.605 533.652 684.207 533.652C688.255 533.652 697.161 530.48 709.818 524.565C720.541 519.559 733.677 514.718 739.146 513.777C744.846 512.785 756.462 512.504 766.408 513.132C775.959 513.71 786.368 515.247 789.54 516.536C792.729 517.808 796.629 518.832 798.215 518.816C799.818 518.799 801.371 517.593 801.685 516.156C801.999 514.718 802.379 511.563 802.544 509.134C802.693 506.722 801.883 503.764 800.726 502.558C799.025 500.807 799.966 499.155 805.832 493.719C811.631 488.35 813.895 487.226 817.398 488.003V488.003Z" fill="#F2BDC1"/>
<path d="M559.476 28.9461C558.435 26.8478 560.071 26.3522 569.39 25.9391C575.52 25.6583 583.88 25.2948 587.978 25.1461C592.076 24.9809 600.436 25.5757 606.566 26.4678C612.696 27.36 620.875 29.5739 624.741 31.3748C631.417 34.4974 631.912 34.5139 634.82 31.7878C636.952 29.7887 639.959 29.0617 644.734 29.4252C648.501 29.6896 660.332 31.3748 671.005 33.1426C682.175 34.9765 696.203 38.6278 704.051 41.7174C711.536 44.6748 721.929 49.6974 727.134 52.8696C732.338 56.0583 741.855 63.113 748.266 68.5652C754.694 74.0174 759.915 79.04 759.882 79.7174C759.849 80.3948 758.511 81.4522 756.924 82.047C755.338 82.6417 747.705 82.1957 739.988 81.0557C732.272 79.9157 722.606 77.9165 718.509 76.6444C714.411 75.3557 706.612 74.3478 701.16 74.3809C693.807 74.4304 688.9 75.62 682.158 78.9409C675.434 82.2617 671.402 85.7974 660.282 101.609L665.636 118.957L654.334 132.587C648.105 140.088 641.975 147.126 640.703 148.233C639.414 149.34 634.275 151.141 629.285 152.231C621.437 153.933 619.636 153.834 616.067 151.521C613.555 149.885 610.367 144.763 607.938 138.436C605.74 132.719 600.04 122.476 595.281 115.652C590.506 108.845 584.872 101.543 582.757 99.4444C580.625 97.3461 577.403 95.8757 575.586 96.1565C573.587 96.487 572.116 98.1391 571.868 100.386C571.637 102.418 574.909 110.217 579.122 117.717C583.352 125.218 591.035 137.296 596.223 144.565C601.923 152.545 606.831 161.715 608.648 167.696C611.308 176.452 611.424 178.947 609.623 189.174C607.971 198.509 606.368 202.177 601.329 208.174C597.892 212.271 592.373 219.706 589.069 224.696C585.764 229.685 581.567 237.682 579.733 242.457C577.486 248.322 576.891 252.072 577.899 254.022C578.709 255.608 580.939 258.218 582.856 259.804C584.756 261.39 587.069 262.316 587.978 261.87C588.887 261.423 593.051 254.17 597.231 245.761C601.411 237.351 605.691 229.272 606.732 227.785C607.772 226.298 612.002 221.474 616.117 217.046C620.231 212.618 624.527 206.406 625.65 203.217C626.774 200.045 627.682 195.023 627.666 192.065C627.633 187.522 628.707 186.035 634.655 182.35C638.522 179.955 644.833 175.857 648.7 173.263C652.566 170.653 656.465 168.522 657.374 168.522C658.283 168.522 661.984 166.11 665.602 163.152C669.221 160.195 672.212 157.039 672.261 156.13C672.294 155.222 673.302 153.371 674.492 152C675.665 150.645 677.862 146.184 679.349 142.087C680.853 137.99 682.654 130.439 683.348 125.284C684.637 115.933 684.62 115.9 679.283 112.893C676.326 111.224 673.946 109.126 673.963 108.217C673.996 107.309 677.598 103.03 681.977 98.7174C689.181 91.6296 690.684 90.8696 697.624 90.8696C701.837 90.8696 709.57 92.2739 714.791 93.9922C720.012 95.7104 729.116 97.8913 735.032 98.8496C740.947 99.8078 750.976 101.146 757.337 101.823C765.533 102.699 769.961 104.054 772.538 106.466C774.521 108.333 776.388 112.1 776.669 114.81C777.132 119.469 776.752 119.832 769.73 121.121C765.632 121.881 759.039 123.368 755.057 124.442C751.092 125.516 747.374 127.102 746.796 127.977C746.168 128.952 747.391 129.101 749.902 128.39C752.182 127.746 756.957 126.656 760.526 125.978C766.954 124.756 767.003 124.789 764.657 128.407C763.368 130.423 760.625 132.835 758.577 133.777C756.528 134.718 752.628 135.478 749.902 135.478C747.176 135.478 744.565 134.735 744.119 133.826C743.673 132.917 741.806 132.174 739.988 132.174C737.923 132.174 733.594 136.023 728.422 142.5C722.144 150.348 719.12 156.197 715.815 166.87C713.172 175.411 711.338 185.44 711.156 192.478C710.941 200.326 709.685 206.571 703.638 219.739L709.471 227.587C712.676 231.899 715.287 237.103 715.254 239.152C715.221 241.201 713.998 245.282 712.511 248.239C710.66 251.973 710.115 255.889 710.776 261.043C711.305 265.141 714.031 272.196 721.945 285L717.749 290.783C715.435 293.971 710.181 300.663 706.083 305.652C701.969 310.642 697.839 317.35 696.897 320.522C695.971 323.71 692.452 329.956 689.098 334.417C685.149 339.654 679.465 344.478 673.071 347.981C666.891 351.368 655.044 355.399 641.677 358.637C629.632 361.562 612.217 367.328 602.023 371.772C592.026 376.117 580.873 380.496 577.238 381.47C573.603 382.445 565.606 386.609 559.476 390.723C550.025 397.034 547.514 398.009 542.953 397.1C538.707 396.257 537.187 396.687 535.733 399.165C534.708 400.9 530.429 403.23 526.232 404.37C522.019 405.51 517.095 406.435 515.278 406.435C513.074 406.435 511.698 405.058 511.147 402.304C510.701 400.041 509.577 398.174 508.668 398.174C507.76 398.174 503.298 390.359 498.755 380.826C494.211 371.293 490.493 361.248 490.493 358.522C490.493 355.796 488.18 344.825 485.355 334.152C481.389 319.217 480.15 310.923 479.985 298.217C479.786 283.777 480.398 279.73 484.942 266C487.783 257.359 490.642 245.463 491.286 239.565C491.931 233.667 493.963 225.109 495.814 220.565C497.648 216.022 500.209 208.587 501.481 204.043C502.77 199.5 506.041 183.143 508.768 167.696C511.494 152.248 515.277 134.768 517.178 128.87C519.061 122.971 521.837 116.842 523.324 115.272C524.795 113.686 529.702 109.969 542.358 101.609L542.672 91.6957C542.854 86.2435 543.763 74.7278 544.705 66.087C545.63 57.4461 548.141 45.6826 550.256 39.9165C553.561 30.9287 554.569 29.5739 557.411 30.4496C559.972 31.2261 560.435 30.8957 559.476 28.9461Z" fill="#FDC69C"/>
<path d="M407.879 38.0991C420.155 37.0748 430.515 35.8522 430.945 35.3896C431.358 34.927 433.208 34.7783 435.076 35.0426C437.471 35.3896 438.595 36.9591 438.942 40.4783C439.223 43.2044 438.76 47.3017 437.934 49.5652C436.463 53.547 435.885 53.6957 420.915 53.8444C411.415 53.927 403.798 54.8357 401.27 56.1904C399.006 57.3965 391.191 59.0652 383.921 59.8748C376.651 60.7009 367.167 61.6922 362.854 62.0887C356.675 62.6339 355.006 62.2539 355.006 60.3044C355.006 58.9496 356.675 56.7687 358.723 55.4635C360.772 54.1583 366.539 51.5148 371.529 49.5817C376.519 47.6487 381.74 44.6913 383.095 43.0061C385.127 40.5113 389.621 39.6191 407.879 38.0991Z" fill="#FDC69C"/>
<path d="M326.917 67.7391C328.734 67.7391 330.635 66.9957 331.13 66.087C331.626 65.1783 332.551 64.4513 333.196 64.4678C333.823 64.4844 336.038 66.1696 338.119 68.1852C340.185 70.2174 341.854 72.613 341.854 73.5217C341.837 74.4304 337.541 78.9904 332.303 83.6496C326.19 89.0852 319.234 93.3974 312.872 95.6774C307.42 97.6435 298.498 100.766 293.045 102.633C287.592 104.5 281.281 107.771 279.001 109.919C276.737 112.05 271.896 114.512 268.261 115.371C264.626 116.23 255.703 118.593 248.433 120.625C241.163 122.657 231.117 126.391 226.127 128.952C221.138 131.497 214.991 136.238 212.496 139.477C210.001 142.731 205.16 146.796 201.756 148.514C198.353 150.232 192.223 152.595 188.125 153.751C184.027 154.924 179.731 156.676 178.558 157.667C176.873 159.038 176.427 158.344 176.46 154.478C176.476 150.596 178.029 148.349 183.548 144.169C187.431 141.228 193.941 136.304 198.039 133.231C202.136 130.175 212.529 123.963 221.171 119.436C229.812 114.925 244.303 108.333 253.39 104.797C262.478 101.262 272.111 96.5035 274.804 94.207C277.48 91.9104 282.685 88.3417 286.37 86.2435C290.038 84.1617 299.919 79.1391 308.329 75.0913C316.739 71.0435 325.099 67.7391 326.917 67.7391Z" fill="#FDC69C"/>
<path d="M20.6822 446.087C20.2361 437.43 20.5831 428.673 21.4918 426.558C22.4336 424.295 24.2346 422.94 25.8374 423.254C27.3244 423.535 30.7612 427.12 33.4709 431.217C37.3538 437.083 38.6756 441.428 39.7826 451.87C40.5592 459.139 41.8976 469.366 42.7733 474.587C43.649 479.808 44.0125 485.954 43.5499 488.217C42.7733 492.117 42.2446 491.77 33.9831 482.022C29.175 476.338 24.3999 469.465 23.3754 466.739C22.351 464.013 21.1449 454.728 20.6822 446.087Z" fill="#FDC69C"/>
<path d="M319.118 320.043C317.532 318.473 318.226 317.251 322.307 314.326C326.256 311.517 327.842 311.121 328.85 312.674C329.577 313.814 330.188 315.301 330.188 315.978C330.205 316.656 328.173 318.308 325.678 319.63C322.125 321.497 320.688 321.596 319.118 320.043Z" fill="#0E0D0C" fill-opacity="0.99"/>
<path d="M393.421 142.814C392.744 142.318 393.306 141.277 394.661 140.501C396.015 139.724 400.014 139.212 403.533 139.344C407.647 139.51 411.349 140.947 413.86 143.326C416.025 145.375 417.826 147.969 417.859 149.109C417.892 150.249 414.918 153.223 411.25 155.717C405.417 159.683 404.673 160.889 405.4 165.217C405.847 167.944 405.45 180.401 404.508 192.891C403.566 205.382 401.699 221.92 400.344 229.652C398.99 237.368 395.735 248.157 393.107 253.609C390.48 259.061 384.631 269.09 380.104 275.913C375.577 282.72 368.257 291.377 363.845 295.128C359.434 298.878 350.445 305.024 343.853 308.758C337.26 312.509 331.13 315.185 330.221 314.739C329.313 314.293 328.569 311.303 328.569 308.13C328.569 302.959 330.552 300.365 347.157 283.761C362.044 268.875 367.365 262.217 373.908 250.304C380.319 238.624 382.186 233.485 382.632 226.348C382.946 221.358 384.003 208.703 384.995 198.261C385.986 187.803 386.663 174.057 386.482 167.696C386.217 157.7 386.746 155.288 390.414 149.935C392.744 146.531 394.099 143.326 393.421 142.814Z" fill="#000101"/>
<path d="M516.351 266.413C516.946 264.827 518.549 262.217 519.904 260.63C521.259 259.044 522.828 257.789 523.374 257.871C523.919 257.937 526.728 258.863 529.603 259.937C532.478 260.994 537.682 264.48 541.169 267.669C544.655 270.857 549.364 274.294 551.628 275.302C553.908 276.31 559.658 280.209 564.433 283.959C571.951 289.874 573.107 291.559 573.107 296.565C573.107 299.737 572.364 302.728 571.455 303.174C570.546 303.62 564.416 301.076 557.824 297.524C551.231 293.955 540.64 287.28 534.279 282.704C527.917 278.11 521.044 273.237 518.995 271.832C516.484 270.13 515.624 268.363 516.351 266.413Z" fill="#000101"/>
<path d="M111.029 306.115C112.103 302.199 114.334 298.498 116.102 297.689C117.82 296.896 120.728 296.697 122.529 297.243C124.347 297.771 126.462 299.886 127.238 301.935C128.015 303.984 130.13 306.396 131.947 307.304C133.765 308.213 136.92 308.94 138.969 308.907C141.332 308.874 143.447 310.394 144.752 313.037C145.992 315.549 150.618 319.018 156.318 321.728C164.993 325.842 167.983 326.304 190.851 327.097C212.893 327.857 216.296 328.353 219.403 331.261C221.352 333.078 222.905 335.127 222.872 335.804C222.839 336.482 220.41 338.25 217.453 339.72C212.975 341.967 207.804 342.297 160.862 340.992L137.73 328.948C125.007 322.339 113.359 316.061 111.855 315.004C109.493 313.351 109.393 312.129 111.029 306.115Z" fill="#000101"/>
<path d="M141.514 357.613C141.332 355.746 142.241 353.334 143.513 352.244C144.785 351.153 146.801 350.261 147.974 350.261C149.164 350.261 151.428 350.905 153.014 351.715C154.6 352.508 163.654 361.991 190.339 392.391L188.571 403.13C187.596 409.045 185.002 418.694 182.804 424.609C180.623 430.523 175.386 441.676 171.156 449.391C166.943 457.107 162.432 467.532 158.764 481.609L151.543 481.13C144.934 480.7 143.117 479.461 129.75 466.26C121.736 458.346 113.425 448.532 111.277 444.435C109.129 440.337 104.899 433.299 101.892 428.772C97.9761 422.89 93.7462 419.14 86.9884 415.555C81.8002 412.812 74.5467 407.591 70.8456 403.957C67.161 400.322 64.1538 396.968 64.1538 396.522C64.1538 396.076 66.5827 394.787 69.5568 393.68C73.9353 392.028 76.6451 392.11 84.0308 394.077C89.0207 395.431 95.9107 398.372 99.3145 400.652C102.718 402.916 107.774 407.938 110.533 411.804C113.309 415.67 119.258 424.394 123.768 431.217C128.279 438.024 131.947 444.352 131.931 445.261C131.914 446.17 135.252 449.705 139.366 453.109C143.464 456.512 147.561 459.304 148.47 459.304C149.379 459.304 151.312 456.149 152.782 452.283C154.236 448.417 157.723 441.924 160.515 437.826C163.307 433.729 166.513 428.161 167.603 425.435C168.71 422.709 170.131 415.654 171.883 399L161.82 387.435C156.285 381.074 149.511 372.532 146.785 368.435C144.042 364.337 141.679 359.48 141.514 357.613Z" fill="#000101"/>
<path d="M768.143 535.784C769.829 533.487 773.662 530.612 776.669 529.39C779.66 528.167 782.865 527.11 783.774 527.027C784.683 526.961 786.368 527.853 787.508 529.043C789.078 530.645 789.144 532.397 787.805 536.13C786.831 538.857 784.038 543.202 781.609 545.796C779.164 548.39 773.827 552.768 762.294 560.55L771.663 568.992C776.801 573.635 781.841 579.665 782.849 582.391C783.873 585.117 784.303 588.653 783.823 590.239C783.344 591.825 781.642 593.857 780.056 594.733C777.875 595.956 775.347 595.179 769.729 591.577C765.632 588.967 756.528 580.805 749.489 573.453C742.235 565.886 736.684 558.65 736.684 556.783C736.684 554.767 738.617 552.52 741.641 551C744.367 549.629 747.903 548.538 749.489 548.571C751.075 548.604 755.239 546.671 758.742 544.292C762.228 541.913 766.474 538.08 768.143 535.784Z" fill="#000101"/>
</svg>
